<svg xmlns="http://www.w3.org/2000/svg" viewBox="0 0 949.1 663.09"><defs><style>.cls-1,.cls-2,.cls-4,.cls-5{fill:#103a31;}.cls-2,.cls-3,.cls-4{stroke:#103a31;stroke-miterlimit:10;}.cls-2,.cls-3{stroke-width:10px;}.cls-3{fill:none;}.cls-5{font-size:187.92px;font-family:NewakeRegular, Newake;}.cls-6{letter-spacing:-0.01em;}</style></defs><g id="Linework_1" data-name="Linework 1"><path class="cls-1" d="M270.69,305.41a171.94,171.94,0,0,1-11.38-26.6,204.14,204.14,0,0,1-6.76-27.92q-2.27-14.13-3.18-28.33c-.57-9.45-.8-18.88-.91-28.29s0-18.77,0-28.11l0-14c0-4.68,0-9.39.05-14.14a138.28,138.28,0,0,1,3-28.68A68.72,68.72,0,0,1,264,82.53,76.86,76.86,0,0,1,286.55,63.6a106.41,106.41,0,0,1,27.13-10.51c2.35-.63,4.73-1,7.09-1.53l3.57-.59,1.79-.29,1.8-.22,3.6-.44,3.61-.29,1.81-.14,1.81-.08,3.62-.14a132.22,132.22,0,0,1,28.87,2.68,120.66,120.66,0,0,1,14.06,3.81c2.29.83,4.6,1.6,6.83,2.57,1.12.48,2.27.9,3.37,1.43l3.31,1.55a109.28,109.28,0,0,1,56.25,65l2.55,8.4-8.84-1.6a136,136,0,0,0-38.23-1.42,179.63,179.63,0,0,0-37.71,7.9c-6.15,1.95-12.22,4.2-18.17,6.68a188.87,188.87,0,0,0-17.35,8.23,128.19,128.19,0,0,0-30.12,22,88.75,88.75,0,0,0-19.79,29.93,101,101,0,0,0-7.29,35.14,106.11,106.11,0,0,0,1.07,17.92L282,264c.14.74.23,1.49.41,2.22l.53,2.19c.37,1.45.65,2.92,1.09,4.36l1.3,4.32a115.11,115.11,0,0,0,6.87,16.73l1,2,1.12,2c.74,1.32,1.44,2.67,2.22,4,1.62,2.57,3.15,5.2,5,7.68A152.21,152.21,0,0,0,326,337c2.34,2,4.66,4.08,7.12,6a83.51,83.51,0,0,0,7.17,5.3c2.45,1.61,5.09,3.22,7.71,4.63s5.22,2.71,7.93,3.94a132.11,132.11,0,0,0,35.13,9.5,182.4,182.4,0,0,0,37.41,1,193,193,0,0,0,37.2-6.31,156.79,156.79,0,0,0,34.81-13.89c10.84-6,20.82-13.56,28.34-23a58.77,58.77,0,0,0,13.28-33l10,0a66.85,66.85,0,0,1-.22,10.86,66,66,0,0,1-2.07,10.77,74.38,74.38,0,0,1-9.16,19.91,83.82,83.82,0,0,1-6.56,8.72c-1.15,1.41-2.41,2.7-3.62,4.05s-2.51,2.6-3.84,3.81c-2.59,2.51-5.35,4.8-8.14,7.05s-5.72,4.29-8.7,6.21a146.64,146.64,0,0,1-18.55,10.34,169.3,169.3,0,0,1-19.61,7.82,201.13,201.13,0,0,1-41.09,9,193.83,193.83,0,0,1-42.33.15A164.48,164.48,0,0,1,367,386.05a143.19,143.19,0,0,1-20.75-6.86c-1.69-.76-3.39-1.45-5.05-2.29l-2.5-1.21-2.47-1.32c-3.25-1.74-6.31-3.58-9.44-5.61a110.28,110.28,0,0,1-8.93-6.51c-2.83-2.16-5.52-4.5-8.23-6.82-1.35-1.16-2.62-2.43-3.93-3.63s-2.61-2.44-3.84-3.73l-3.76-3.83-3.59-4c-.6-.67-1.21-1.32-1.79-2L291,336.16c-1.12-1.4-2.3-2.75-3.38-4.19-2.15-2.89-4.33-5.75-6.28-8.78s-3.87-6.1-5.74-9.19c-.9-1.57-1.73-3.18-2.59-4.77l-1.27-2.4-1.15-2.47A135.57,135.57,0,0,1,262.77,284l-1.44-5.29c-.46-1.76-.77-3.57-1.16-5.36l-.55-2.68c-.18-.9-.28-1.81-.42-2.71l-.79-5.43a122.1,122.1,0,0,1,10.32-64.19,108,108,0,0,1,25.88-35,145.15,145.15,0,0,1,35.47-23.09c6.3-3,12.71-5.6,19.19-7.91s13-4.36,19.67-6.1,13.36-3.23,20.14-4.4a196.6,196.6,0,0,1,20.55-2.31c1.73-.07,3.45-.19,5.17-.22l5.19-.06,5.18.14c1.73,0,3.46.2,5.19.29a149,149,0,0,1,20.57,2.86l-6.28,6.81a93.74,93.74,0,0,0-27.93-44.49,100,100,0,0,0-10.51-8.29,99,99,0,0,0-11.52-6.84l-3-1.47c-1-.51-2.05-.9-3.07-1.36-2-.93-4.16-1.67-6.26-2.47a111.46,111.46,0,0,0-13-3.71,117.66,117.66,0,0,0-26.87-2.82l-3.39.1-1.7.06-1.69.12-3.39.24-3.37.39-1.68.19-1.68.26-3.35.52c-2.22.46-4.46.82-6.64,1.38a98.29,98.29,0,0,0-25.12,9.49,67.1,67.1,0,0,0-20.28,16.78,60.79,60.79,0,0,0-11,23.71,131,131,0,0,0-2.86,27c-.09,4.62,0,9.26,0,13.93l.1,14.06c0,9.37,0,18.71.15,28s.54,18.58,1.18,27.8,1.82,18.37,3.42,27.4a196.78,196.78,0,0,0,6.91,26.47,161.68,161.68,0,0,0,11.3,24.66Z"/><path class="cls-2" d="M750.06,394.88h0c-.41,22.77-27.37,34.24-49.32,21.81L547.1,302.24l-.05-7.71Z"/><polyline class="cls-3" points="456.77 377.01 431.16 423.39 392.09 423.39"/><polyline class="cls-3" points="352.06 368.99 323.65 423.39 284.58 423.39"/><path class="cls-4" d="M251.16,118.22c-2.47-1.46-4.77-3.17-7.31-4.52-4.82-2.55-10.21-4.11-15.3-6,2.62-2.36,5.42-5.87,12.86-8.26a42,42,0,0,1,17.72-1.73"/><path class="cls-4" d="M427.72,90.78c-5.19-2.37-9.57-6.17-14.79-8.51a49.54,49.54,0,0,0-17-4.55c-7.24-.45-14.47.46-21.64,1.32a127.82,127.82,0,0,0-49.71,17.43c-8.48,5.08-17.6,10.57-27.73,11.1l-.54,0c-3.5.11-33.5-7.38-34.17-6.21l14.63-25.85,52.87-24.15,59.06,7.7c2.36.33,6.59,4.84,8.61,6.28,3.23,2.31,6.49,4.59,9.71,6.91,3.55,2.55,7,5.31,10.33,8.1,2.08,1.72,4.14,3.47,6.13,5.3C424.5,86.63,428.76,89.05,427.72,90.78Z"/><path class="cls-4" d="M364.18,128.57c-5.84,1.41-.08-.19-4.9.73a106.23,106.23,0,0,1-22.78,2c-7-.33-13.61-2.53-19.9-5.44-6.64-3.06-12.37-7.2-19.74-8.53-5.22-.94-10.54-1.46-15.8-2.2-3-.42-26.61-2.06-27-6l-1.14,55.73-.4,58.84,6.45,26.19S295.3,159.13,307,164.3c4.57,2,25.22-16.72,29.53-19.26,2.8-1.65,12-1.41,14.68-3.31C352.34,140.94,363.65,129.33,364.18,128.57Z"/><line class="cls-3" x1="431.16" y1="423.39" x2="454.05" y2="423.39"/><line class="cls-3" x1="321.62" y1="423.39" x2="344.51" y2="423.39"/><text class="cls-5" transform="translate(37.45 568.11)">chickad<tspan class="cls-6" x="653.21" y="0">e</tspan><tspan x="762.76" y="0">e</tspan></text></g></svg>