<svg xmlns="http://www.w3.org/2000/svg" viewBox="0 0 630.93 481.64"><defs><style>.cls-1,.cls-2,.cls-4{fill:#103a31;}.cls-2,.cls-3,.cls-4{stroke:#103a31;stroke-miterlimit:10;}.cls-2,.cls-3{stroke-width:10px;}.cls-3{fill:none;}</style></defs><g id="Linework_1" data-name="Linework 1"><path class="cls-1" d="M96.85,308.84a172.55,172.55,0,0,1-11.39-26.6,207.12,207.12,0,0,1-6.76-27.92Q76.45,240.19,75.53,226c-.57-9.45-.8-18.88-.91-28.28s0-18.78,0-28.12l0-14c0-4.68,0-9.39.05-14.13a137.62,137.62,0,0,1,3-28.69A68.61,68.61,0,0,1,90.14,86,76.74,76.74,0,0,1,112.71,67a106.64,106.64,0,0,1,27.13-10.51c2.35-.62,4.73-1,7.09-1.53l3.57-.59,1.79-.29,1.8-.22,3.6-.44,3.61-.29,1.81-.14,1.81-.07,3.62-.14a131.6,131.6,0,0,1,28.87,2.67,121.19,121.19,0,0,1,14.06,3.81c2.29.83,4.59,1.6,6.83,2.57,1.12.48,2.27.9,3.37,1.43L225,64.84A111.83,111.83,0,0,1,249.32,81a106.36,106.36,0,0,1,31.9,48.76l2.56,8.4-8.84-1.6a136,136,0,0,0-38.23-1.42A179,179,0,0,0,199,143.09c-6.15,1.94-12.22,4.19-18.17,6.67A188.87,188.87,0,0,0,163.48,158a128.19,128.19,0,0,0-30.12,22,91.15,91.15,0,0,0-11.46,14A89.64,89.64,0,0,0,113.57,210a101.08,101.08,0,0,0-7.29,35.14A107.16,107.16,0,0,0,107.34,263l.79,4.44c.14.73.24,1.48.42,2.21l.53,2.19c.37,1.45.65,2.93,1.09,4.37l1.3,4.31a114.12,114.12,0,0,0,6.87,16.74l1,2,1.11,2c.75,1.32,1.45,2.67,2.23,4,1.62,2.57,3.15,5.2,4.95,7.68a152.21,152.21,0,0,0,24.48,27.48c2.34,2,4.66,4.08,7.12,6a82,82,0,0,0,7.17,5.3c2.45,1.61,5.09,3.22,7.7,4.63s5.23,2.71,7.93,3.94a132.28,132.28,0,0,0,35.14,9.5,181.7,181.7,0,0,0,37.41,1,193.78,193.78,0,0,0,37.2-6.3,157.76,157.76,0,0,0,34.81-13.89c10.84-6,20.82-13.57,28.33-23a58.75,58.75,0,0,0,13.29-33l10,0a64.52,64.52,0,0,1-2.29,21.64,74.52,74.52,0,0,1-9.16,19.91,84.76,84.76,0,0,1-6.56,8.71c-1.15,1.41-2.41,2.71-3.62,4.05s-2.51,2.6-3.84,3.81c-2.59,2.51-5.35,4.8-8.14,7.05s-5.72,4.29-8.7,6.22a147.83,147.83,0,0,1-18.55,10.33,171.17,171.17,0,0,1-19.61,7.83,202.47,202.47,0,0,1-41.09,9,193.83,193.83,0,0,1-42.33.14,166.19,166.19,0,0,1-21.18-3.7,144.47,144.47,0,0,1-20.75-6.87c-1.69-.76-3.39-1.45-5-2.29l-2.51-1.21-2.46-1.32c-3.25-1.74-6.31-3.58-9.44-5.61a110.28,110.28,0,0,1-8.93-6.51c-2.83-2.15-5.52-4.5-8.23-6.82-1.35-1.16-2.62-2.42-3.93-3.63s-2.61-2.44-3.85-3.73l-3.75-3.83-3.59-4c-.6-.68-1.21-1.33-1.79-2l-1.71-2.08c-1.13-1.4-2.3-2.75-3.38-4.19-2.15-2.89-4.33-5.74-6.28-8.78s-3.87-6.1-5.74-9.19c-.9-1.57-1.73-3.18-2.59-4.77l-1.27-2.4-1.16-2.47a136.61,136.61,0,0,1-7.8-20.38l-1.44-5.28c-.46-1.77-.77-3.58-1.16-5.36l-.55-2.69c-.18-.89-.28-1.81-.43-2.71l-.78-5.43a122.1,122.1,0,0,1,10.32-64.19,108,108,0,0,1,25.87-35,145.15,145.15,0,0,1,35.48-23.1c6.3-3,12.71-5.6,19.18-7.91s13-4.36,19.67-6.1,13.37-3.23,20.15-4.39A191.37,191.37,0,0,1,235.79,123c1.72-.07,3.44-.2,5.17-.22l5.19-.06,5.18.13c1.73,0,3.46.2,5.18.3A146,146,0,0,1,277.09,126l-6.29,6.8a93.64,93.64,0,0,0-27.92-44.49A100,100,0,0,0,232.37,80a99,99,0,0,0-11.52-6.84l-3-1.47c-1-.51-2.05-.9-3.07-1.36-2-.93-4.17-1.67-6.26-2.46a114.1,114.1,0,0,0-13-3.72,117.69,117.69,0,0,0-26.88-2.82l-3.39.1-1.69.06-1.69.12-3.39.24-3.37.39-1.68.19-1.68.26-3.36.52c-2.21.47-4.45.82-6.63,1.38a98.17,98.17,0,0,0-25.12,9.5A67.07,67.07,0,0,0,96.38,90.86a60.71,60.71,0,0,0-11,23.71,130.34,130.34,0,0,0-2.86,27c-.09,4.61,0,9.25,0,13.92l.1,14.07c0,9.36,0,18.7.15,28s.54,18.58,1.18,27.81,1.82,18.36,3.42,27.39a196.78,196.78,0,0,0,6.91,26.47,160.83,160.83,0,0,0,11.3,24.67Z"/><path class="cls-2" d="M576.21,398.31h0c-.4,22.77-27.37,34.24-49.31,21.81L373.26,305.67l-.05-7.7Z"/><polyline class="cls-3" points="282.93 380.45 257.32 426.82 218.25 426.82"/><polyline class="cls-3" points="178.22 372.42 149.81 426.82 110.74 426.82"/><path class="cls-4" d="M77.31,121.65c-2.47-1.45-4.76-3.17-7.3-4.51-4.82-2.56-10.21-4.12-15.3-6,2.62-2.36,5.42-5.87,12.86-8.26a42.32,42.32,0,0,1,17.72-1.73"/><path class="cls-4" d="M253.88,94.22c-5.19-2.38-9.58-6.18-14.79-8.51a49.33,49.33,0,0,0-17-4.56c-7.24-.45-14.47.46-21.64,1.33A127.64,127.64,0,0,0,150.71,99.9C142.23,105,133.11,110.47,123,111l-.54,0c-3.5.12-33.5-7.38-34.17-6.2L102.9,79l52.87-24.15,59.06,7.7c2.36.33,6.59,4.84,8.61,6.28,3.23,2.31,6.49,4.59,9.71,6.91,3.55,2.55,7,5.32,10.33,8.1,2.08,1.72,4.14,3.47,6.13,5.3C250.65,90.06,254.92,92.48,253.88,94.22Z"/><path class="cls-4" d="M190.34,132c-5.84,1.41-.08-.19-4.9.73a105.6,105.6,0,0,1-22.78,2c-7-.33-13.61-2.53-19.91-5.43-6.63-3.06-12.36-7.2-19.73-8.53-5.22-1-10.54-1.47-15.8-2.2-3-.42-26.61-2.06-27-6l-1.14,55.73-.4,58.84,6.44,26.2s36.37-90.79,48.09-85.62c4.58,2,25.23-16.72,29.54-19.26,2.8-1.65,12-1.41,14.68-3.31C178.49,144.37,189.8,132.76,190.34,132Z"/><line class="cls-3" x1="257.32" y1="426.82" x2="280.21" y2="426.82"/><line class="cls-3" x1="147.78" y1="426.82" x2="170.67" y2="426.82"/></g></svg>