<?xml version="1.0" standalone="no"?>
<!DOCTYPE svg PUBLIC "-//W3C//DTD SVG 20010904//EN"
 "http://www.w3.org/TR/2001/REC-SVG-20010904/DTD/svg10.dtd">
<svg version="1.0" xmlns="http://www.w3.org/2000/svg"
 width="1262.000000pt" height="1262.000000pt" viewBox="0 0 1262.000000 1262.000000"
 preserveAspectRatio="xMidYMid meet">
<metadata>
Created by potrace 1.14, written by Peter Selinger 2001-2017
</metadata>
<g transform="translate(0.000000,1262.000000) scale(0.100000,-0.100000)"
fill="#000000" stroke="none">
<path d="M3316 10073 c-1 -1 -35 -4 -76 -6 -41 -3 -77 -6 -80 -7 -3 -1 -22 -2
-43 -2 -20 0 -40 -4 -43 -9 -3 -5 -9 -7 -14 -4 -8 5 -107 -12 -245 -41 -52
-11 -241 -68 -249 -75 -6 -5 -16 -9 -23 -9 -8 0 -30 -7 -51 -17 -20 -9 -39
-17 -42 -18 -3 -1 -35 -16 -72 -33 -36 -18 -71 -32 -77 -32 -6 0 -11 -4 -11
-8 0 -5 -22 -19 -50 -32 -27 -13 -50 -27 -50 -32 0 -4 -7 -8 -15 -8 -8 0 -15
-4 -15 -10 0 -5 -5 -10 -11 -10 -13 0 -118 -79 -178 -134 -74 -69 -181 -185
-181 -197 0 -4 -6 -14 -14 -22 -24 -23 -82 -119 -112 -184 l-29 -63 -55 -1
c-56 -2 -91 -5 -100 -8 -3 -1 -17 -4 -31 -6 -43 -6 -113 -26 -126 -37 -7 -6
-13 -7 -13 -4 0 9 -104 -46 -108 -56 -2 -5 -8 -8 -13 -8 -5 0 -31 -21 -59 -46
-47 -45 -55 -64 -26 -64 8 0 31 -8 52 -17 22 -9 41 -17 44 -18 3 -1 19 -5 35
-10 45 -12 188 -81 240 -116 l45 -30 -6 -62 c-3 -34 -8 -80 -11 -102 -7 -56
-6 -1697 1 -1820 9 -135 14 -210 21 -275 2 -30 7 -75 9 -100 2 -25 5 -45 6
-45 0 0 3 -21 5 -46 2 -26 7 -60 10 -75 2 -16 7 -49 10 -74 3 -25 7 -52 9 -60
1 -8 6 -33 10 -55 4 -22 18 -89 32 -150 13 -60 26 -120 28 -132 3 -12 10 -31
16 -42 6 -12 9 -21 6 -21 -3 0 0 -15 5 -32 6 -18 11 -37 13 -43 10 -39 30
-103 36 -120 5 -11 27 -69 50 -130 24 -60 65 -156 91 -212 27 -56 49 -107 49
-111 0 -5 7 -15 15 -22 9 -7 31 -43 49 -79 18 -36 42 -80 52 -98 93 -154 165
-267 176 -271 5 -2 8 -10 8 -18 0 -8 3 -14 8 -14 4 0 18 -17 32 -38 14 -20 29
-42 35 -48 5 -6 21 -26 35 -44 28 -37 89 -106 137 -157 18 -18 33 -35 33 -38
0 -2 35 -38 78 -79 136 -131 162 -154 262 -236 30 -25 57 -48 58 -52 2 -5 8
-8 13 -8 8 0 30 -16 63 -45 19 -18 233 -155 241 -155 2 0 27 -14 55 -30 28
-17 56 -30 61 -30 6 0 17 -7 25 -15 13 -12 9 -24 -28 -97 -23 -46 -47 -86 -53
-90 -5 -4 -6 -8 -1 -8 5 0 4 -6 -2 -12 -6 -7 -45 -80 -88 -163 -42 -82 -82
-153 -88 -157 -6 -4 -8 -8 -4 -8 9 0 -61 -138 -73 -146 -5 -3 -9 -12 -9 -20 0
-9 -7 -22 -15 -31 -8 -8 -13 -19 -10 -24 4 -5 1 -9 -4 -9 -6 0 -11 -6 -11 -12
0 -7 -7 -22 -15 -32 -14 -18 -32 -19 -372 -20 l-357 -1 -2 -98 -1 -97 36 -1
c339 -6 1161 -2 1162 6 0 6 2 51 2 100 l2 90 -123 0 c-67 0 -122 4 -122 8 0
10 192 390 201 397 11 9 69 125 69 137 0 6 3 13 8 15 4 1 27 43 52 91 25 49
48 90 51 92 3 3 30 -5 60 -17 51 -20 89 -31 206 -63 51 -14 70 -19 128 -30 17
-3 37 -8 45 -10 19 -6 91 -18 108 -18 6 0 12 -3 12 -6 0 -3 12 -6 28 -7 15 0
56 -4 92 -8 112 -13 132 -15 235 -22 169 -11 460 -6 610 11 103 11 194 23 235
30 14 3 43 8 65 11 22 3 43 8 47 10 10 6 -74 -151 -162 -306 -20 -36 -57 -101
-80 -145 -24 -44 -55 -100 -69 -124 l-26 -44 -359 -1 -359 -1 -2 -97 c0 -62 3
-98 10 -99 5 0 285 -1 620 -1 l610 -1 0 99 0 99 -142 0 c-79 0 -143 1 -143 3
0 6 104 197 109 202 3 3 14 21 23 40 29 58 87 162 99 177 6 7 9 13 5 13 -3 0
10 24 29 54 19 30 36 60 37 67 2 7 7 18 11 24 5 5 18 28 30 49 12 22 29 43 37
47 14 8 173 57 202 63 7 2 22 6 33 10 11 5 37 14 58 22 20 8 37 11 37 8 0 -4
6 -2 13 3 6 5 35 18 62 28 28 10 70 27 95 38 25 12 50 22 56 23 44 8 444 225
452 246 2 4 8 8 13 8 6 0 24 10 42 22 47 34 160 120 173 132 6 6 34 31 63 56
29 24 81 73 115 108 81 86 75 79 128 147 26 33 53 67 60 75 18 20 44 65 129
217 10 18 16 33 13 33 -4 0 0 10 8 22 18 28 68 170 68 192 0 9 5 16 11 16 10
0 144 -93 159 -110 3 -3 21 -17 40 -30 19 -13 40 -29 46 -35 6 -5 21 -17 34
-25 20 -14 90 -65 150 -111 173 -131 252 -189 256 -189 2 0 14 -9 26 -19 19
-16 295 -224 397 -298 13 -10 30 -24 37 -30 7 -7 16 -13 21 -13 4 0 24 -14 43
-30 45 -38 36 -31 166 -127 62 -45 120 -88 130 -96 16 -14 98 -74 190 -142 15
-11 51 -38 80 -60 29 -22 78 -58 109 -79 30 -22 55 -43 55 -48 0 -4 4 -8 10
-8 5 0 78 -51 162 -114 84 -63 173 -130 198 -148 25 -18 47 -35 50 -38 3 -4
33 -26 68 -49 34 -24 62 -48 62 -52 0 -5 5 -9 11 -9 6 0 30 -15 53 -32 22 -18
46 -36 51 -40 6 -4 24 -19 41 -33 18 -14 36 -25 42 -25 6 0 12 -4 14 -9 4 -12
137 -111 149 -111 5 0 9 -3 9 -8 0 -4 30 -27 68 -52 37 -25 69 -47 72 -50 3
-3 30 -14 60 -24 30 -10 61 -23 68 -29 6 -5 12 -7 12 -4 0 3 15 1 33 -4 60
-19 102 -24 212 -24 126 0 168 6 257 35 100 34 205 98 275 168 33 33 103 129
103 142 0 5 5 10 12 10 6 0 8 3 5 6 -3 4 -1 16 5 28 7 11 13 24 14 29 1 4 2 8
4 10 1 1 3 9 5 17 1 8 8 33 14 56 13 48 21 178 12 191 -7 11 -737 373 -751
373 -6 0 -10 5 -10 10 0 6 -5 10 -12 10 -6 0 -184 85 -395 190 -210 105 -388
190 -393 190 -6 0 -10 5 -10 11 0 5 -4 8 -9 5 -5 -3 -14 1 -21 9 -7 8 -16 15
-21 15 -13 0 -244 114 -247 122 -2 4 -9 8 -16 8 -7 0 -165 76 -352 169 -653
324 -859 425 -863 422 -2 -1 -7 1 -10 6 -5 7 -157 86 -171 88 -14 3 -146 71
-151 78 -3 5 -9 8 -13 8 -3 -1 -125 57 -269 129 -145 71 -268 130 -274 130 -6
0 -13 4 -15 8 -3 8 -232 122 -246 122 -4 0 -8 -21 -8 -47 -1 -57 -13 -173 -19
-184 -3 -3 -7 -24 -11 -45 -3 -21 -14 -59 -24 -85 -11 -26 -16 -50 -13 -53 4
-3 1 -6 -5 -6 -7 0 -11 -3 -10 -7 3 -9 -23 -75 -31 -83 -3 -3 -22 -35 -40 -72
-19 -38 -38 -68 -42 -68 -4 0 -10 -8 -13 -17 -3 -10 -17 -31 -31 -48 -14 -16
-40 -47 -57 -69 -77 -91 -191 -194 -313 -281 -103 -74 -188 -125 -300 -181
-55 -27 -103 -53 -106 -57 -3 -5 -9 -8 -13 -8 -3 1 -23 -6 -44 -15 -241 -103
-626 -215 -822 -239 -33 -5 -98 -14 -130 -20 -24 -4 -132 -17 -175 -20 -89 -8
-241 -17 -252 -16 -20 2 -33 2 -98 0 -72 -1 -318 10 -354 16 -15 2 -51 7 -81
10 -30 3 -68 8 -85 11 -16 3 -43 8 -60 10 -87 14 -130 24 -230 51 -49 13 -98
26 -108 28 -9 2 -21 6 -25 9 -5 3 -19 7 -33 10 -52 10 -350 142 -357 158 -2 4
-9 8 -16 8 -6 0 -35 16 -65 35 -29 19 -56 35 -61 35 -5 0 -10 3 -12 8 -1 4
-28 24 -58 44 -30 21 -71 51 -90 68 -19 17 -48 41 -63 53 -38 30 -86 73 -187
171 -78 75 -120 121 -227 245 -52 60 -204 272 -228 318 -11 21 -22 40 -26 43
-3 3 -12 19 -21 35 -8 17 -29 57 -46 90 -18 33 -32 65 -32 72 0 7 -4 13 -10
13 -5 0 -10 9 -10 20 0 11 -3 20 -8 20 -8 0 -10 4 -81 213 -28 81 -53 162 -56
180 -3 18 -8 39 -10 47 -2 8 -7 27 -10 43 -3 15 -7 38 -10 52 -25 117 -36 414
-21 540 11 98 17 140 22 165 3 14 7 39 10 55 6 31 38 157 48 188 3 9 9 25 13
35 3 9 8 25 9 34 8 38 108 257 149 326 25 41 45 77 45 79 0 2 6 10 13 17 6 8
30 39 52 70 22 32 51 69 64 84 42 49 181 192 186 192 2 0 15 10 28 23 127 122
340 264 574 383 120 61 328 153 403 179 3 1 12 4 20 7 37 15 56 21 65 24 6 2
51 17 100 34 74 26 221 69 285 85 37 9 117 27 135 31 11 2 31 6 45 9 42 9 66
13 117 21 26 3 57 8 68 10 11 3 40 7 65 9 25 3 63 8 85 11 66 9 481 12 538 3
28 -4 72 -10 97 -13 50 -5 191 -29 258 -44 38 -9 42 -8 42 9 0 10 -4 28 -9 41
-6 13 -21 59 -34 103 -49 158 -129 336 -215 479 -23 37 -42 72 -42 76 0 5 -3
10 -8 12 -4 2 -32 37 -62 78 -64 87 -90 117 -185 216 -88 91 -162 156 -260
229 -22 16 -44 33 -50 38 -29 23 -168 108 -227 137 -38 19 -68 38 -68 42 0 5
-6 8 -14 8 -7 0 -46 15 -87 34 -177 82 -465 159 -681 182 -103 12 -405 24
-412 17z m1204 -588 c72 -12 75 -13 121 -26 24 -7 49 -15 54 -19 6 -4 33 -15
60 -25 28 -10 66 -30 85 -43 49 -36 196 -187 250 -258 25 -32 48 -60 53 -62 4
-2 7 -9 7 -16 0 -7 9 -21 19 -33 11 -11 29 -40 41 -64 13 -24 26 -46 31 -49 4
-3 29 -50 54 -105 25 -55 50 -108 55 -117 10 -17 -2 -34 -17 -25 -8 5 -116 17
-203 23 -25 2 -124 4 -220 4 -179 1 -216 -1 -435 -24 -36 -4 -121 -16 -152
-22 -120 -22 -240 -47 -293 -60 -30 -8 -71 -17 -90 -20 -19 -3 -41 -11 -49
-17 -8 -7 -15 -10 -15 -9 -2 6 -79 -10 -97 -19 -9 -5 -34 -11 -55 -14 -22 -2
-52 -8 -69 -11 -16 -3 -43 -8 -60 -10 -16 -2 -50 -6 -75 -9 -59 -8 -328 -10
-360 -2 -14 3 -34 8 -45 10 -52 12 -112 29 -130 37 -20 8 -58 21 -62 21 -9 0
-192 95 -205 107 -10 8 -18 12 -18 9 0 -3 -26 7 -57 22 -65 33 -176 67 -243
75 -25 4 -56 8 -70 10 -14 3 -50 7 -80 10 -30 4 -75 9 -100 12 -25 3 -63 8
-85 10 -22 2 -56 6 -75 8 -19 3 -54 6 -77 8 -24 1 -43 5 -43 8 0 3 -10 5 -22
6 -21 0 -55 6 -113 17 -14 3 -20 12 -19 28 1 27 11 73 24 104 4 11 12 32 18
47 8 19 17 26 30 23 11 -2 37 -6 58 -9 22 -4 64 -12 94 -18 30 -7 63 -12 73
-11 9 0 17 -3 17 -7 0 -4 6 -7 13 -7 23 -1 86 -11 104 -17 10 -3 29 -8 43 -10
14 -3 48 -11 75 -17 85 -18 98 -20 188 -23 48 -2 100 0 115 5 89 28 165 56
222 84 79 38 199 104 220 120 39 31 335 181 375 190 5 1 19 6 30 10 61 25 122
47 135 50 8 2 36 10 61 19 25 9 56 18 70 20 13 3 25 5 27 7 1 1 5 2 10 3 15 4
87 18 89 18 2 0 24 5 50 12 27 7 60 12 76 12 15 -1 27 1 27 4 0 3 10 6 23 7
12 1 42 4 67 7 25 2 79 8 120 12 41 3 76 7 78 9 6 5 231 -3 272 -10z"/>
</g>
</svg>
